<svg width="165" height="74" viewBox="0 0 165 74" fill="none" xmlns="http://www.w3.org/2000/svg">
<path d="M5.86126 35.0593C5.70686 34.9211 0.0598029 35.3329 0.0916307 34.9049L0.0909487 0.337841C0.0597981 -0.0901412 5.70686 0.321586 5.86126 0.182763C6.16532 0.309397 6.16058 34.9279 5.86126 35.0593Z" fill="white"/>
<path d="M15.5029 35.0593C15.3485 34.9211 9.7014 35.3329 9.73323 34.9049L9.73255 0.337841C9.7014 -0.0901412 15.3485 0.321586 15.5029 0.182763C15.8069 0.309397 15.8022 34.9279 15.5029 35.0593Z" fill="white"/>
<path d="M25.1533 35.0593C24.9989 34.9211 19.3518 35.3329 19.3836 34.9049L19.3829 0.337841C19.3518 -0.0901412 24.9989 0.321586 25.1533 0.182763C25.4573 0.309397 25.4526 34.9279 25.1533 35.0593Z" fill="white"/>
<path d="M34.8076 35.0593C34.6532 34.9211 29.0061 35.3329 29.0379 34.9049L29.0372 0.337841C29.0061 -0.0901412 34.6532 0.321586 34.8076 0.182763C35.1116 0.309397 35.1069 34.9279 34.8076 35.0593Z" fill="white"/>
<path d="M61.3574 48.1165C61.201 48.2499 49.2764 47.8531 49.317 48.2716C49.4423 48.43 49.0658 53.236 49.4714 53.2076H61.3574C61.6445 53.2469 61.629 48.0779 61.3574 48.1165Z" fill="white"/>
<path d="M61.3457 38.186C61.1893 38.3194 49.2647 37.9226 49.3053 38.3404C49.4306 38.4995 49.0541 43.3049 49.4597 43.2771H61.3457C61.6328 43.3164 61.6179 38.1474 61.3457 38.186Z" fill="white"/>
<path d="M61.3643 67.9456C61.2078 68.079 49.2832 67.6822 49.3239 68.1007C49.4491 68.2591 49.0726 73.0645 49.4783 73.0367H61.3643C61.6514 73.076 61.6358 67.9077 61.3643 67.9456Z" fill="white"/>
<path d="M61.375 58.0078C61.2186 58.1412 49.294 57.7443 49.3346 58.1622C49.4599 58.322 49.0834 63.1273 49.489 63.0982H61.375C61.6614 63.1388 61.6465 57.9699 61.375 58.0078Z" fill="white"/>
<path d="M44.0032 48.1112C38.2797 48.4661 37.3553 46.1711 38.1943 53.2023C43.9186 52.8475 44.843 55.1438 44.0032 48.1112Z" fill="white"/>
<path d="M44.0003 38.1742C38.2767 38.5284 37.3524 36.2334 38.1914 43.2653C43.9157 42.9098 44.84 45.2061 44.0003 38.1742Z" fill="white"/>
<path d="M44.0072 67.9374C38.2836 68.2916 37.3592 65.9966 38.1982 73.0278C43.9225 72.6723 44.8469 74.9686 44.0072 67.9374Z" fill="white"/>
<path d="M44.0111 57.9996C38.2875 58.3544 37.3631 56.0588 38.2021 63.09C43.9264 62.7352 44.8508 65.0308 44.0111 57.9996Z" fill="white"/>
<path d="M72.7733 48.0948C72.6189 48.2343 66.5751 47.8199 66.6069 48.2492C66.7295 48.4083 66.3577 53.2143 66.7613 53.1852C66.9164 53.0464 72.9603 53.4602 72.9278 53.0308C72.8052 52.871 73.1776 48.0664 72.7733 48.0948Z" fill="white"/>
<path d="M72.7694 38.1568C72.615 38.2963 66.5712 37.8819 66.603 38.3112C66.7256 38.4697 66.3538 43.2757 66.7574 43.2472C66.9125 43.1077 72.9563 43.5222 72.9238 43.0921C72.8013 42.9344 73.1737 38.1284 72.7694 38.1568Z" fill="white"/>
<path d="M72.7802 67.9169C72.6258 68.0564 66.5819 67.642 66.6137 68.072C66.7363 68.2304 66.3645 73.0358 66.7681 73.008C66.9232 72.8678 72.9671 73.2829 72.9346 72.8529C72.812 72.6944 73.1852 67.8884 72.7802 67.9169Z" fill="white"/>
<path d="M72.7841 57.9792C72.6297 58.1181 66.5858 57.7043 66.6176 58.1336C66.7402 58.2928 66.3684 63.0981 66.772 63.0697C66.9271 62.9302 72.971 63.3439 72.9385 62.9153C72.8159 62.7561 73.1884 57.9501 72.7841 57.9792Z" fill="white"/>
<path d="M34.8183 68.0201L4.78162 56.6136C2.4934 55.7447 0.0413029 57.4147 0.0142154 59.862C-0.0440227 65.2078 0.0859897 72.9744 0.234971 73.0299H34.7634C35.0973 72.9345 34.9612 68.2064 34.8183 68.0201Z" fill="white"/>
<path d="M15.7791 56.3378C4.83237 51.9889 6.00527 55.0992 6.18067 42.9288C6.2985 42.5624 13.0548 42.6552 13.2397 42.8909C13.0223 43.0967 16.6032 56.4949 15.7791 56.3378Z" fill="white"/>
<path d="M28.5285 61.2014C28.4039 61.0206 18.8705 57.7695 18.926 57.42V43.4226C19.0466 43.063 25.8083 43.1463 25.9796 43.3948C25.7703 43.579 29.3012 61.4039 28.5285 61.2014Z" fill="white"/>
<path d="M48.3811 27.1718C43.676 29.823 38.379 29.3408 38.379 29.3408C37.8529 27.53 48.5477 18.411 52.9393 19.7708C52.9501 20.6477 53.4356 21.3798 54.1298 21.8145C52.9853 23.4337 51.0899 25.6454 48.3811 27.1718ZM54.7189 22.0861C55.2227 22.2838 55.818 22.2581 56.3103 22.0475C59.4971 38.9122 56.3069 34.5755 72.7849 35.0603C73.2278 35.0982 72.7897 0.492605 72.94 0.338884C72.9732 -0.106029 56.0536 0.333463 55.8979 0.183805C57.0457 2.16052 60.0524 14.3885 56.5981 17.5916C55.9026 17.1548 54.937 17.1548 54.2415 17.5916C50.7811 14.4129 53.7986 2.15171 54.939 0.183805C54.7826 0.333463 38.0296 -0.106033 38.0642 0.338202L38.0635 34.9052C55.0738 34.8206 51.2443 38.8695 54.7189 22.0861ZM62.4531 27.1697C59.7464 25.6447 57.8516 23.435 56.7078 21.8159C57.4033 21.3818 57.8895 20.6477 57.9003 19.7694C62.2763 18.3941 73.0077 27.5544 72.4551 29.3388C72.4551 29.3388 67.1589 29.8209 62.4531 27.1697Z" fill="white"/>
<path d="M87.9961 60.6272V59.7401H89.0423V53.9664H87.9961V53.0786H91.1382V53.9664H90.092V59.7401H91.1382V60.6272H87.9961Z" fill="white"/>
<path d="M92.6436 60.6294V55.0283H93.6532V55.9459H93.7054C93.9654 55.3297 94.4381 54.897 95.2819 54.897C96.4311 54.897 97.134 55.6886 97.134 57.0491V60.6294H96.1297V57.2001C96.1297 56.2608 95.7397 55.7746 94.9487 55.7746C94.2871 55.7746 93.6532 56.1105 93.6532 56.7931V60.63H92.6436V60.6294Z" fill="white"/>
<path d="M102.384 59.7058H102.342C102.081 60.3972 101.5 60.7548 100.728 60.7548C99.3239 60.7548 98.4814 59.6402 98.4814 57.8239C98.4814 56.005 99.3239 54.8917 100.728 54.8917C101.5 54.8917 102.081 55.2486 102.342 55.9407H102.384V52.6211H103.388V60.6241H102.384V59.7058ZM102.384 58.8492V56.796C102.384 56.2007 101.78 55.7687 101.021 55.7687C100.126 55.7687 99.5528 56.4052 99.5528 57.3479V58.2966C99.5528 59.2393 100.126 59.8772 101.021 59.8772C101.78 59.8778 102.384 59.4451 102.384 58.8492Z" fill="white"/>
<path d="M108.581 59.7071H108.529C108.321 60.2481 107.889 60.7547 106.957 60.7547C105.813 60.7547 105.1 59.9637 105.1 58.6039V55.0236H106.104V58.4522C106.104 59.3922 106.505 59.8784 107.296 59.8784C107.93 59.8784 108.581 59.5547 108.581 58.8497V55.0229H109.585V60.624H108.581V59.7071Z" fill="white"/>
<path d="M110.842 59.6759L111.524 59.0928C111.945 59.6217 112.461 59.9258 113.142 59.9258C113.855 59.9258 114.245 59.6109 114.245 59.0928C114.245 58.6825 114.033 58.3906 113.351 58.2917L112.872 58.2172C111.805 58.0655 111.055 57.6233 111.055 56.5852C111.055 55.4821 111.909 54.897 113.091 54.897C114.043 54.897 114.635 55.2322 115.114 55.7943L114.474 56.401C114.204 56.0448 113.731 55.7299 113.059 55.7299C112.378 55.7299 112.029 56.0448 112.029 56.5209C112.029 57.0173 112.357 57.2231 113.003 57.32L113.481 57.3951C114.714 57.5793 115.219 58.1204 115.219 58.9851C115.219 60.0774 114.397 60.7587 113.08 60.7587C112.039 60.758 111.357 60.3375 110.842 59.6759Z" fill="white"/>
<path d="M117.941 60.6262C117.249 60.6262 116.884 60.2152 116.884 59.5671V55.8785H115.984V55.0252H116.483C116.863 55.0252 116.977 54.8837 116.977 54.5065V53.4785H117.888V55.0245H119.09V55.8778H117.888V59.773H119.002V60.6262H117.941Z" fill="white"/>
<path d="M120.428 60.624V55.0229H121.438V56.0943H121.49C121.672 55.543 122.171 55.0229 123.066 55.0229H123.405V56.0292H122.905C121.979 56.0292 121.438 56.3956 121.438 56.9475V60.624H120.428Z" fill="white"/>
<path d="M124.388 53.303V53.1513C124.388 52.827 124.57 52.6001 124.992 52.6001C125.414 52.6001 125.596 52.827 125.596 53.1513V53.303C125.596 53.6274 125.414 53.8536 124.992 53.8536C124.57 53.8536 124.388 53.6281 124.388 53.303ZM124.481 55.0231H125.491V60.6241H124.481V55.0231Z" fill="white"/>
<path d="M131.334 60.6287C130.715 60.6287 130.423 60.2386 130.35 59.7003H130.293C130.069 60.3917 129.471 60.7587 128.674 60.7587C127.504 60.7587 126.822 60.1093 126.822 59.0834C126.822 58.0012 127.613 57.4181 129.215 57.4181H130.272V56.9075C130.272 56.1599 129.871 55.7394 129.029 55.7394C128.367 55.7394 127.946 56.0644 127.655 56.5405L127.051 55.99C127.384 55.3832 128.045 54.897 129.085 54.897C130.48 54.897 131.276 55.6121 131.276 56.8222V59.7754H131.907V60.6287H131.334ZM130.271 58.9845V58.1204H129.2C128.284 58.1204 127.872 58.4014 127.872 58.9202V59.1355C127.872 59.6556 128.273 59.9474 128.898 59.9474C129.689 59.9474 130.271 59.5465 130.271 58.9845Z" fill="white"/>
<path d="M134.15 60.6248C133.458 60.6248 133.099 60.2137 133.099 59.5968V52.6211H134.108V59.7715H134.904V60.6248H134.15Z" fill="white"/>
<path d="M93.0174 69.4542H89.3843V72.8056H88.334V65.2563H89.3843V68.5224H93.0174V65.2563H94.0637V72.8056H93.0174V69.4542Z" fill="white"/>
<path d="M99.9981 72.8058C99.3778 72.8058 99.0866 72.4164 99.0142 71.878H98.9573C98.7325 72.5694 98.1345 72.9364 97.3381 72.9364C96.1673 72.9364 95.4854 72.2891 95.4854 71.2604C95.4854 70.1783 96.2763 69.5952 97.8792 69.5952H98.9363V69.086C98.9363 68.3383 98.5354 67.9171 97.6916 67.9171C97.0314 67.9171 96.6095 68.2415 96.319 68.7182L95.7142 68.1677C96.0474 67.5609 96.709 67.0747 97.7499 67.0747C99.1442 67.0747 99.9399 67.7878 99.9399 69.0006V71.9532H100.57V72.8064H99.9981V72.8058ZM98.9363 71.1615V70.2974H97.8643C96.9481 70.2974 96.537 70.5791 96.537 71.0965V71.3132C96.537 71.8333 96.9379 72.1245 97.5623 72.1245C98.3532 72.1245 98.9363 71.7236 98.9363 71.1615Z" fill="white"/>
<path d="M101.361 70.0069C101.361 68.2124 102.278 67.0747 103.88 67.0747C104.984 67.0747 105.676 67.6158 105.999 68.4169L105.166 68.8273C104.984 68.2767 104.527 67.9402 103.881 67.9402C102.919 67.9402 102.429 68.5984 102.429 69.5194V70.4932C102.429 71.4114 102.919 72.0696 103.881 72.0696C104.563 72.0696 105.026 71.7236 105.307 71.1202L106.04 71.5726C105.687 72.4164 104.948 72.9364 103.881 72.9364C102.278 72.9364 101.361 71.7995 101.361 70.0069Z" fill="white"/>
<path d="M107.213 64.8027H108.222V69.7882H108.274L109.075 68.8042L110.532 67.2034H111.724L109.736 69.3663L111.984 72.8064H110.772L109.018 70.0171L108.222 70.8696V72.8064H107.213V64.8027Z" fill="white"/>
<path d="M117.05 72.8058C116.431 72.8058 116.139 72.4164 116.066 71.878H116.009C115.785 72.5694 115.187 72.9364 114.39 72.9364C113.219 72.9364 112.538 72.2891 112.538 71.2604C112.538 70.1783 113.329 69.5952 114.932 69.5952H115.988V69.086C115.988 68.3383 115.587 67.9171 114.745 67.9171C114.083 67.9171 113.662 68.2415 113.371 68.7182L112.767 68.1677C113.1 67.5609 113.761 67.0747 114.802 67.0747C116.196 67.0747 116.993 67.7878 116.993 69.0006V71.9532H117.623V72.8064H117.05V72.8058ZM115.988 71.1615V70.2974H114.917C114.001 70.2974 113.589 70.5791 113.589 71.0965V71.3132C113.589 71.8333 113.99 72.1245 114.614 72.1245C115.405 72.1245 115.988 71.7236 115.988 71.1615Z" fill="white"/>
<path d="M120.178 72.8085C119.486 72.8085 119.121 72.3975 119.121 71.7494V68.0601H118.221V67.2069H118.72C119.1 67.2069 119.213 67.066 119.213 66.6888V65.6602H120.125V67.2062H121.327V68.0594H120.125V71.9553H121.239V72.8085H120.178Z" fill="white"/>
<path d="M122.656 64.8027H123.666V68.123H123.718C123.978 67.5061 124.451 67.074 125.295 67.074C126.444 67.074 127.147 67.865 127.147 69.2261V72.8064H126.143V69.3771C126.143 68.4379 125.752 67.9517 124.961 67.9517C124.3 67.9517 123.666 68.2875 123.666 68.9688V72.8071H122.656V64.8027Z" fill="white"/>
<path d="M128.45 70.0069C128.45 68.2226 129.475 67.0747 131 67.0747C132.526 67.0747 133.551 68.2226 133.551 70.0069C133.551 71.7886 132.526 72.9364 131 72.9364C129.475 72.9364 128.45 71.7886 128.45 70.0069ZM132.484 70.4288V69.5823C132.484 68.4927 131.875 67.9408 131 67.9408C130.126 67.9408 129.518 68.4921 129.518 69.5823V70.4288C129.518 71.5184 130.126 72.0703 131 72.0703C131.875 72.0703 132.484 71.5191 132.484 70.4288Z" fill="white"/>
<path d="M134.92 72.8071V67.2054H135.929V68.1237H135.981C136.241 67.5061 136.714 67.0747 137.558 67.0747C138.707 67.0747 139.41 67.8657 139.41 69.2268V72.8071H138.406V69.3778C138.406 68.4386 138.016 67.9524 137.225 67.9524C136.563 67.9524 135.929 68.2882 135.929 68.9695V72.8078L134.92 72.8071Z" fill="white"/>
<path d="M94.209 21.466C99.1789 21.466 101.437 19.301 101.437 14.6406C101.437 13.6275 101.271 12.3558 100.967 10.7088L100.591 8.65967L98.5437 9.05989L98.9893 11.1321C99.2947 12.6388 99.4593 13.7697 99.4593 14.6406C99.4593 17.371 98.0724 18.6177 95.0345 18.6177H93.4079C90.8211 18.6177 89.2439 17.2288 89.2439 14.8762C89.2439 13.7927 89.6692 12.3334 90.2556 11.0617L88.4679 10.5213C87.7819 12.1458 87.3613 13.9099 87.3613 15.3469C87.3613 19.1832 89.8344 21.466 94.209 21.466Z" fill="white"/>
<path d="M94.3062 8.66007H94.6603C95.3666 8.66007 95.861 8.23683 95.861 7.31856C95.861 6.37727 95.3666 5.97705 94.6603 5.97705H94.3062C93.5999 5.97705 93.1299 6.37727 93.1299 7.31856C93.1299 8.23683 93.5999 8.66007 94.3062 8.66007Z" fill="white"/>
<path d="M121.368 17.6767C124.686 17.6767 126.264 16.2654 126.264 13.3224C126.264 12.6168 126.168 11.603 125.982 10.3563L125.673 8.30713L123.626 8.63692L124.006 10.6847C124.217 12.0283 124.287 12.7793 124.287 13.3224C124.287 14.6165 123.511 15.0167 121.368 15.0167H112.229C112.184 10.8026 110.512 8.30713 107.784 8.30713C105.168 8.30713 103.264 10.6847 103.264 13.6982C103.264 16.218 104.746 17.6767 107.264 17.6767H110.087C109.502 19.5363 107.665 20.6678 104.391 20.6678H103.024V23.3258H104.486C108.676 23.3258 111.193 21.2787 111.973 17.6767H121.368ZM110.277 15.016H107.358C105.967 15.016 105.216 14.523 105.216 13.3691C105.216 11.9551 106.133 10.9915 107.569 10.9915C109.171 10.9915 110.277 12.4034 110.277 14.5684V15.016Z" fill="white"/>
<path d="M117.086 4.85225C117.086 5.77052 117.581 6.19376 118.287 6.19376H118.617C119.323 6.19376 119.818 5.77052 119.818 4.85225C119.818 3.90893 119.323 3.51074 118.617 3.51074H118.287C117.581 3.51074 117.086 3.90893 117.086 4.85225Z" fill="white"/>
<path d="M114.943 6.19376H115.298C116.004 6.19376 116.498 5.77052 116.498 4.85225C116.498 3.90893 116.004 3.51074 115.298 3.51074H114.943C114.237 3.51074 113.767 3.90893 113.767 4.85225C113.766 5.77052 114.237 6.19376 114.943 6.19376Z" fill="white"/>
<path d="M116.613 3.08427H116.968C117.649 3.08427 118.12 2.68405 118.12 1.76782C118.12 0.871899 117.649 0.47168 116.968 0.47168H116.613C115.932 0.47168 115.437 0.871899 115.437 1.76782C115.437 2.68405 115.932 3.08427 116.613 3.08427Z" fill="white"/>
<path d="M133.132 17.6793H133.157L133.17 17.6671V17.6793H136.443C139.336 17.6793 140.773 16.22 140.773 13.4422C140.773 11.653 139.972 10.4287 137.644 8.68696L134.937 6.51997V6.37979L144.612 2.54284V0L133.97 4.21481V9.15761L137.665 12.0059C138.561 12.6891 138.845 13.0894 138.845 13.6772C138.845 14.6185 138.16 15.0193 136.843 15.0193H133.744H133.735H132.967C131.576 15.0193 130.99 14.6185 130.99 13.3243V0.258006H128.803V13.537C128.803 16.5254 130.049 17.6793 133.132 17.6793Z" fill="white"/>
<path d="M160.124 6.87607L156.475 4.87363L155.724 6.31063C153.532 6.52056 151.84 8.57039 151.84 11.0408C151.84 12.4771 152.521 13.8186 153.792 14.9021L153.747 15.0199H150.717H150.709H149.941C148.549 15.0199 147.964 14.6197 147.964 13.3256V0.259277H145.776V13.5383C145.776 16.5267 147.023 17.6799 150.107 17.6799H150.131L150.144 17.6684V17.6799H151.555C153.182 17.6799 154.759 17.3271 156.1 16.5267C157.467 17.3271 159.019 17.6799 160.666 17.6799H163.278L165 15.1378V14.6671C165 10.9697 163.563 8.78033 160.124 6.87607ZM156.099 14.4795C154.618 13.608 153.721 12.4073 153.721 11.0882C153.721 9.51169 154.618 8.49998 155.98 8.49998H156.24C157.606 8.49998 158.477 9.51169 158.477 11.0882C158.477 12.4067 157.582 13.6073 156.099 14.4795ZM163.043 15.0193H158.453L158.408 14.9014C159.679 13.8179 160.36 12.4764 160.36 11.0401C160.36 10.5695 160.29 10.1239 160.175 9.69859L160.22 9.65118C162.172 10.8769 163.043 12.3836 163.043 14.8066V15.0193H163.043Z" fill="white"/>
<path d="M92.1567 27.3623C91.4511 27.3623 90.9805 27.7605 90.9805 28.7038C90.9805 29.6221 91.4511 30.0453 92.1567 30.0453H92.5075C93.2179 30.0453 93.7089 29.6221 93.7089 28.7038C93.7089 27.7605 93.2172 27.3623 92.5075 27.3623H92.1567Z" fill="white"/>
<path d="M95.4754 27.3623C94.7698 27.3623 94.2998 27.7605 94.2998 28.7038C94.2998 29.6221 94.7698 30.0453 95.4754 30.0453H95.8296C96.5366 30.0453 97.0275 29.6221 97.0275 28.7038C97.0275 27.7605 96.5366 27.3623 95.8296 27.3623H95.4754Z" fill="white"/>
<path d="M108.204 40.3315C107.448 40.5441 106.622 40.6619 105.871 40.6619C103.609 40.6619 102.081 39.5087 102.081 37.8137C102.081 36.33 103.093 35.3887 104.835 35.3887C106.061 35.3887 106.952 35.8593 107.708 36.9184L109.449 35.176C108.508 33.6469 107.072 32.7287 105 32.7287C102.267 32.7287 100.15 34.8957 100.15 37.8137C100.15 39.273 100.786 40.5915 101.706 41.415V41.5328H99.2206H99.2078H98.4446C97.2182 41.5328 96.6785 41.18 96.6785 40.0498V31.9526H94.5359V33.1993L92.0384 34.5178C89.3357 35.9541 88.085 37.2956 88.085 39.4383C88.085 41.5328 89.2856 42.7565 91.4533 42.7565C93.0758 42.7565 94.0659 42.0278 94.5365 40.2861H94.6523V40.5671C94.6523 43.0361 95.8056 44.1874 98.6444 44.1921V44.1935H98.6552H98.6566C102.837 44.1921 104.794 43.9802 107.659 43.135L110.908 42.2168L110.273 39.7924L108.204 40.3315ZM94.5359 38.497C94.5359 39.6963 93.8546 40.0965 91.9686 40.0965C90.5317 40.0965 90.0163 39.7206 90.0163 38.8024C90.0163 37.8367 90.7463 37.2733 92.4183 36.4031L94.5359 35.3196V38.497Z" fill="white"/>
<path d="M123.595 35.3799H123.949C124.656 35.3799 125.151 34.9566 125.151 34.0384C125.151 33.095 124.656 32.6948 123.949 32.6948H123.595C122.89 32.6948 122.419 33.095 122.419 34.0384C122.419 34.9566 122.89 35.3799 123.595 35.3799Z" fill="white"/>
<path d="M156.566 39.6771C156.566 40.9482 156.07 41.5367 154.708 41.5367H153.904H153.883H153.337C152.917 41.5367 152.541 41.513 152.162 41.4189C152.397 40.8081 152.516 40.0523 152.516 39.1815C152.516 35.9574 150.68 34.003 147.361 34.003C144.393 34.003 142.015 35.3445 139.708 39.346L138.556 41.3234C138.016 41.0654 137.78 40.5243 137.78 39.6765V37.9822H135.733V39.6765C135.733 40.9252 135.098 41.536 133.776 41.536H133.004H133H132.112C130.862 41.536 130.275 40.9476 130.275 39.6765V36.0969H128.228V39.6765C128.228 40.9252 127.593 41.536 126.271 41.536H117.178C115.787 41.536 115.201 41.1351 115.201 39.8417V26.7754H113.014V40.0523C113.014 43.0428 114.26 44.196 117.344 44.196H117.368L117.385 44.1805V44.196H124.934C127.027 44.1947 127.943 43.4417 128.319 41.5123H128.463C128.863 43.3482 130.11 44.196 132.418 44.196L132.433 44.1805V44.196C134.531 44.196 135.448 43.443 135.822 41.5123H135.968C136.368 43.3482 137.615 44.196 139.922 44.196H146.794C148.396 44.196 149.667 43.938 150.584 43.3719C151.334 44.0044 152.177 44.1906 153.316 44.1933V44.196H154.707C157.6 44.196 158.777 42.7597 158.777 39.6765V26.7754H156.565V39.6771H156.566ZM146.796 41.5367H140.393L140.323 41.3965L141.334 39.8424C142.981 37.2996 144.372 36.686 147.006 36.686H147.711C149.618 36.686 150.564 37.5339 150.564 39.2282C150.564 40.9706 149.408 41.5367 146.796 41.5367Z" fill="white"/>
<path d="M164.215 26.7754H162.027V44.1967H164.215V26.7754Z" fill="white"/>
<path d="M126.338 28.616L120.899 31.1338L120.287 29.8153L125.724 27.2969L126.338 28.616Z" fill="white"/>
<path d="M141.471 29.6845V27.9902H142.837V29.2138C142.837 29.5917 143.023 29.7793 143.332 29.7793C143.753 29.7793 143.943 29.4969 143.943 28.8136V27.3069H145.31V28.2252C145.31 28.7662 145.495 28.9789 145.85 28.9789C146.227 28.9789 146.461 28.6958 146.461 28.2726C146.461 27.8724 146.346 27.3543 146.132 26.7435L147.473 26.3433C147.708 27.0245 147.802 27.6848 147.802 28.2252C147.802 29.7793 147.072 30.6976 145.826 30.6976C145.144 30.6976 144.624 30.273 144.458 29.5443H144.368C144.272 30.8384 143.777 31.521 142.883 31.521C141.987 31.521 141.471 30.8384 141.471 29.6845Z" fill="white"/>
</svg>
