<svg width="204" height="49" viewBox="0 0 204 49" fill="none" xmlns="http://www.w3.org/2000/svg">
<path d="M129.651 20.2513C128.782 18.3371 127.6 16.6691 126.128 15.2548C124.646 13.8375 122.931 12.7374 120.976 11.9524C119.044 11.1719 117.003 10.8045 114.855 10.8404V10.8359C114.837 10.8359 114.816 10.8404 114.798 10.8404H114.788C114.622 10.8449 114.468 10.8651 114.299 10.8771C113.945 10.8943 113.589 10.91 113.235 10.9512C112.84 10.9968 112.451 11.0709 112.06 11.1435C111.934 11.1742 111.805 11.1891 111.677 11.2138C111.495 11.2528 111.315 11.3156 111.132 11.3643C110.309 11.576 109.502 11.8409 108.722 12.1844C106.804 13.0353 105.139 14.1877 103.724 15.6491C102.305 17.1046 101.205 18.8123 100.422 20.7692C99.6861 22.5771 99.3179 24.5018 99.312 26.538C99.3075 26.7176 99.3075 26.8987 99.312 27.0835H99.3165C99.3681 29.2282 99.8283 31.2479 100.69 33.1464C101.564 35.0644 102.736 36.7324 104.216 38.1482C105.696 39.5633 107.412 40.6663 109.367 41.4505C111.3 42.2295 113.341 42.5955 115.483 42.5573V42.5678C115.509 42.5678 115.527 42.5573 115.548 42.5573H115.551C115.719 42.5521 115.885 42.5311 116.054 42.5214C116.402 42.5049 116.76 42.4862 117.103 42.4436C117.499 42.4009 117.896 42.3298 118.284 42.2527C118.409 42.2288 118.538 42.2123 118.667 42.1809C118.847 42.139 119.027 42.0836 119.213 42.0335C120.033 41.8217 120.842 41.559 121.621 41.2118C123.535 40.3625 125.202 39.2101 126.62 37.7531C128.039 36.2931 129.135 34.5892 129.921 32.639C130.654 30.8229 131.021 28.8982 131.031 26.8665C131.033 26.6861 131.033 26.5043 131.031 26.3165H131.024C130.974 24.1718 130.514 22.1543 129.651 20.2513ZM125.472 30.7854C124.933 32.1556 124.173 33.3574 123.198 34.3774C123.064 34.5113 122.931 34.6288 122.795 34.759C121.902 35.6009 120.879 36.2938 119.704 36.8184C118.367 37.4156 116.945 37.7314 115.423 37.7748C113.903 37.8032 112.455 37.5473 111.088 37.007C109.711 36.4607 108.516 35.6982 107.49 34.7261C106.472 33.7473 105.658 32.5829 105.052 31.2337C104.453 29.8927 104.133 28.4574 104.093 26.9398C104.073 25.4222 104.324 23.9802 104.865 22.6145C105.406 21.2466 106.17 20.0418 107.147 19.0233C107.278 18.8871 107.423 18.7622 107.558 18.629C108.453 17.7916 109.467 17.1046 110.637 16.5823C111.979 15.9814 113.398 15.6679 114.918 15.6282C116.44 15.5975 117.888 15.8542 119.257 16.3952C120.629 16.9348 121.826 17.6988 122.85 18.6783C123.869 19.6527 124.685 20.8215 125.291 22.1678C125.885 23.508 126.21 24.9426 126.243 26.4639C126.276 27.9792 126.02 29.4235 125.472 30.7854Z" fill="#AAB1B0"/>
<path d="M62.8592 15.8807C61.4352 14.4551 59.7672 13.3244 57.8619 12.4818C55.953 11.6467 53.9317 11.2246 51.7945 11.2246C49.6169 11.2246 47.5733 11.6467 45.6658 12.4818C43.7613 13.3244 42.0911 14.4551 40.6715 15.8807C39.2452 17.304 38.1227 18.9712 37.3055 20.8765C36.4884 22.7839 36.082 24.8059 36.082 26.9431C36.082 29.1185 36.4884 31.1651 37.3055 33.0704C38.1227 34.9793 39.2452 36.6399 40.6715 38.0669C42.0911 39.488 43.7613 40.6105 45.6658 41.4276C47.5733 42.2515 49.6169 42.6549 51.7945 42.6549V37.9412C50.2448 37.9412 48.8013 37.6568 47.458 37.0911C46.1148 36.5254 44.9541 35.7523 43.9693 34.7683C42.9846 33.7835 42.2085 32.6199 41.6458 31.2781C41.0801 29.9386 40.792 28.4951 40.792 26.9431C40.792 25.433 41.0801 24.0119 41.6458 22.6702C42.2085 21.327 42.9846 20.1521 43.9693 19.1523C44.9541 18.1406 46.1148 17.3586 47.458 16.7914C48.8013 16.2219 50.2448 15.9413 51.7945 15.9413C53.3047 15.9413 54.7295 16.1927 56.0727 16.6963C57.4122 17.2022 58.5826 17.872 59.5876 18.7086C60.5933 19.5474 61.3828 20.533 61.947 21.6629C62.5135 22.7952 62.7934 23.9842 62.7934 25.2429H56.5135C53.9071 25.2429 51.7945 27.3554 51.7945 29.9611H64.4913C66.1578 29.9611 67.5093 28.6104 67.5093 26.9439C67.5093 24.8066 67.0902 22.7839 66.2514 20.8772C65.414 18.972 64.284 17.3047 62.8592 15.8807Z" fill="#AAB1B0"/>
<path d="M163.248 15.6521C161.803 14.2086 160.132 13.0689 158.229 12.233C156.323 11.3964 154.286 10.9766 152.111 10.9766C149.935 10.9766 147.9 11.3941 145.994 12.2188C144.089 13.0457 142.426 14.1756 141.009 15.6139C139.583 17.0492 138.456 18.7239 137.618 20.6277C136.783 22.5329 136.367 24.5766 136.367 26.7557V42.5617H138.065C139.732 42.5617 141.083 41.2095 141.083 39.5437V26.7557C141.083 25.2441 141.361 23.8215 141.929 22.4835C142.493 21.141 143.282 19.9669 144.287 18.9627C145.294 17.9554 146.464 17.1592 147.808 16.5733C149.143 15.9821 150.594 15.694 152.146 15.694C153.692 15.694 155.141 15.9821 156.485 16.5733C157.824 17.1592 158.993 17.9554 160.004 18.9627C161.011 19.9669 161.791 21.141 162.359 22.4835C162.922 23.8215 163.207 25.2441 163.207 26.7557V42.5325H167.919V26.7856C167.919 24.6147 167.504 22.577 166.666 20.6711C165.832 18.7658 164.69 17.0956 163.248 15.6521Z" fill="#AAB1B0"/>
<path d="M199.288 3.01798V8.14772C199.288 9.81424 197.937 11.1657 196.27 11.1657H188.285C186.106 11.1657 184.063 11.5713 182.159 12.3877C180.251 13.2071 178.595 14.3304 177.193 15.7522C175.785 17.18 174.679 18.8435 173.861 20.751C173.044 22.6584 172.633 24.6991 172.633 26.8805C172.633 29.0214 173.044 31.0396 173.861 32.9449C174.679 34.8553 175.785 36.5188 177.193 37.9429C178.595 39.3655 180.251 40.4902 182.159 41.3096C184.063 42.12 186.105 42.5316 188.285 42.5316C190.468 42.5316 192.507 42.12 194.415 41.3096C196.322 40.4902 197.991 39.3655 199.407 37.9429C200.84 36.5196 201.96 34.8553 202.778 32.9449C203.593 31.0396 204.002 29.0222 204.002 26.8805V0H202.306C200.64 0 199.288 1.35147 199.288 3.01798ZM199.288 26.8805C199.288 28.3913 199.005 29.8131 198.441 31.1549C197.869 32.4944 197.097 33.661 196.116 34.6465C195.128 35.6268 193.963 36.4036 192.622 36.9671C191.279 37.5298 189.837 37.8164 188.285 37.8164C186.778 37.8164 185.351 37.5298 184.012 36.9671C182.672 36.4036 181.506 35.6268 180.527 34.6465C179.54 33.661 178.761 32.4944 178.201 31.1549C177.632 29.8131 177.346 28.3913 177.346 26.8805C177.346 25.3322 177.632 23.8857 178.201 22.5454C178.761 21.2037 179.54 20.0415 180.527 19.053C181.507 18.0705 182.672 17.2915 184.012 16.7302C185.351 16.1608 186.778 15.8816 188.285 15.8816H199.288V26.8805Z" fill="#AAB1B0"/>
<path d="M80.7524 25.3388L72.9773 11.2891H67.5078L80.5832 34.9241L75.7581 43.6877C74.5997 45.7927 76.1217 48.3684 78.5239 48.3684L86.0535 34.9241V34.9218L99.3077 11.3145H95.6118C94.517 11.3145 93.5075 11.9079 92.9747 12.865L86.0303 25.3448C84.8786 27.4154 81.8995 27.4117 80.7524 25.3388Z" fill="#AAB1B0"/>
<path d="M26.8124 15.7529C25.404 14.3304 23.7517 13.2071 21.8458 12.3877C19.939 11.5713 17.8954 11.1657 15.7125 11.1657H7.73091C6.06365 11.1657 4.71293 9.81424 4.71293 8.14773V3.01798C4.71293 1.35147 3.36146 0 1.6942 0H0V26.8805C0 29.0214 0.407837 31.0396 1.22276 32.9449C2.04292 34.8553 3.16465 36.5188 4.58721 37.9429C6.01351 39.3655 7.68152 40.4909 9.58451 41.3096C11.4912 42.12 13.5364 42.5316 15.7125 42.5316C17.8954 42.5316 19.939 42.12 21.8458 41.3096C23.7517 40.4909 25.404 39.3655 26.8124 37.9429C28.214 36.5196 29.3215 34.8553 30.1417 32.9449C30.9611 31.0396 31.3674 29.0222 31.3674 26.8805C31.3674 24.6984 30.9611 22.6577 30.1417 20.751C29.3215 18.8442 28.214 17.1807 26.8124 15.7529ZM25.8051 31.1556C25.2364 32.4951 24.4611 33.6618 23.4786 34.6473C22.4916 35.6283 21.3302 36.4044 19.9892 36.9686C18.6489 37.5313 17.2249 37.8172 15.7125 37.8172C14.162 37.8172 12.72 37.5313 11.3775 36.9686C10.0365 36.4044 8.8721 35.6283 7.88582 34.6473C6.90551 33.6618 6.12876 32.4951 5.56377 31.1556C4.99729 29.8139 4.71293 28.3921 4.71293 26.8812V15.8824H15.7125C17.2249 15.8824 18.6489 16.1615 19.9892 16.731C21.3302 17.2922 22.4916 18.0712 23.4786 19.0538C24.4611 20.0423 25.2364 21.2044 25.8051 22.5462C26.3709 23.8864 26.6507 25.3329 26.6507 26.8812C26.6507 28.3921 26.3709 29.8139 25.8051 31.1556Z" fill="#AAB1B0"/>
<path d="M7.89844 28.004L16.8798 19.0234H7.89844V28.004Z" fill="#F0B441"/>
</svg>
