<svg width="224" height="53" viewBox="0 0 224 53" fill="none" xmlns="http://www.w3.org/2000/svg">
<path d="M142.063 22.1906C141.111 20.0931 139.815 18.2654 138.203 16.7157C136.579 15.1627 134.7 13.9573 132.557 13.0972C130.44 12.2419 128.204 11.8393 125.85 11.8787V11.8738C125.831 11.8738 125.808 11.8787 125.788 11.8787H125.777C125.595 11.8836 125.426 11.9058 125.241 11.9189C124.854 11.9377 124.463 11.955 124.075 12.0001C123.642 12.0501 123.216 12.1312 122.787 12.2108C122.649 12.2444 122.508 12.2608 122.368 12.2879C122.168 12.3305 121.971 12.3994 121.77 12.4527C120.869 12.6847 119.985 12.975 119.13 13.3514C117.029 14.2837 115.204 15.5464 113.654 17.1478C112.099 18.7426 110.894 20.6138 110.035 22.758C109.229 24.739 108.826 26.848 108.819 29.0791C108.814 29.2759 108.814 29.4743 108.819 29.6768H108.824C108.881 32.0268 109.385 34.2399 110.33 36.3202C111.286 38.4217 112.571 40.2494 114.192 41.8008C115.814 43.3514 117.694 44.56 119.837 45.4193C121.955 46.2729 124.191 46.6739 126.539 46.632V46.6435C126.566 46.6435 126.586 46.632 126.609 46.632H126.612C126.797 46.6263 126.979 46.6033 127.164 46.5927C127.545 46.5746 127.937 46.5541 128.314 46.5074C128.748 46.4607 129.182 46.3828 129.608 46.2983C129.745 46.2721 129.886 46.254 130.027 46.2196C130.224 46.1737 130.421 46.113 130.625 46.0581C131.524 45.826 132.41 45.5382 133.264 45.1577C135.361 44.2271 137.188 42.9643 138.742 41.3679C140.296 39.7681 141.497 37.9011 142.359 35.7642C143.162 33.7742 143.564 31.6652 143.575 29.439C143.577 29.2414 143.577 29.0422 143.575 28.8364H143.568C143.513 26.4864 143.008 24.2757 142.063 22.1906ZM137.483 33.7332C136.893 35.2345 136.061 36.5514 134.992 37.669C134.846 37.8158 134.7 37.9445 134.55 38.0872C133.572 39.0097 132.451 39.7689 131.164 40.3437C129.699 40.9981 128.14 41.3441 126.473 41.3916C124.807 41.4228 123.221 41.1424 121.722 40.5504C120.213 39.9518 118.904 39.1163 117.78 38.0511C116.665 36.9786 115.772 35.7027 115.109 34.2243C114.452 32.755 114.101 31.1823 114.058 29.5194C114.036 27.8565 114.311 26.2764 114.903 24.78C115.497 23.2811 116.334 21.961 117.404 20.845C117.548 20.6958 117.707 20.5588 117.855 20.4129C118.836 19.4953 119.946 18.7426 121.228 18.1703C122.699 17.5119 124.254 17.1683 125.919 17.1248C127.586 17.0912 129.173 17.3725 130.674 17.9653C132.177 18.5565 133.489 19.3937 134.611 20.467C135.727 21.5346 136.622 22.8154 137.286 24.2905C137.936 25.759 138.293 27.3309 138.329 28.9979C138.365 30.6583 138.084 32.2409 137.483 33.7332Z" fill="white"/>
<path d="M68.8769 17.4021C67.3165 15.8401 65.4888 14.6011 63.4012 13.6778C61.3095 12.7628 59.0947 12.3003 56.7529 12.3003C54.3668 12.3003 52.1275 12.7628 50.0374 13.6778C47.9506 14.6011 46.1204 15.8401 44.565 17.4021C43.0021 18.9617 41.7722 20.7886 40.8768 22.8762C39.9814 24.9663 39.5361 27.1818 39.5361 29.5236C39.5361 31.9073 39.9814 34.1499 40.8768 36.2375C41.7722 38.3292 43.0021 40.1487 44.565 41.7124C46.1204 43.2695 47.9506 44.4994 50.0374 45.3948C52.1275 46.2976 54.3668 46.7396 56.7529 46.7396V41.5746C55.0548 41.5746 53.4731 41.2631 52.0012 40.6432C50.5294 40.0233 49.2576 39.1762 48.1786 38.098C47.0995 37.0189 46.2492 35.7439 45.6326 34.2737C45.0127 32.8059 44.697 31.2242 44.697 29.5236C44.697 27.8689 45.0127 26.3118 45.6326 24.8416C46.2492 23.3698 47.0995 22.0825 48.1786 20.987C49.2576 19.8784 50.5294 19.0215 52.0012 18.4C53.4731 17.776 55.0548 17.4685 56.7529 17.4685C58.4076 17.4685 59.9688 17.744 61.4406 18.2959C62.9084 18.8502 64.1908 19.584 65.292 20.5007C66.394 21.4199 67.2591 22.4998 67.8774 23.738C68.4981 24.9786 68.8047 26.2815 68.8047 27.6607H61.9236C59.0677 27.6607 56.7529 29.9754 56.7529 32.8305H70.6652C72.4913 32.8305 73.9721 31.3505 73.9721 29.5244C73.9721 27.1826 73.513 24.9663 72.5938 22.877C71.6763 20.7894 70.4381 18.9625 68.8769 17.4021Z" fill="white"/>
<path d="M178.875 17.1495C177.29 15.5678 175.46 14.319 173.375 13.4031C171.287 12.4864 169.054 12.0264 166.671 12.0264C164.287 12.0264 162.057 12.4839 159.968 13.3875C157.881 14.2936 156.059 15.5317 154.506 17.1077C152.944 18.6804 151.708 20.5155 150.791 22.6014C149.875 24.6891 149.42 26.9284 149.42 29.3161V46.6354H151.28C153.107 46.6354 154.587 45.1537 154.587 43.3285V29.3161C154.587 27.6598 154.892 26.101 155.515 24.6349C156.132 23.1639 156.997 21.8774 158.098 20.777C159.201 19.6733 160.484 18.8009 161.956 18.1589C163.419 17.5111 165.009 17.1954 166.71 17.1954C168.404 17.1954 169.991 17.5111 171.464 18.1589C172.931 18.8009 174.212 19.6733 175.319 20.777C176.423 21.8774 177.278 23.1639 177.901 24.6349C178.517 26.101 178.83 27.6598 178.83 29.3161V46.6034H183.993V29.3489C183.993 26.9702 183.538 24.7374 182.619 22.649C181.705 20.5614 180.454 18.7312 178.875 17.1495Z" fill="white"/>
<path d="M218.365 3.30764V8.92849C218.365 10.7546 216.884 12.2354 215.058 12.2354H206.309C203.921 12.2354 201.683 12.6798 199.596 13.5744C197.506 14.4723 195.691 15.703 194.155 17.261C192.612 18.8255 191.4 20.6482 190.504 22.7383C189.609 24.8284 189.158 27.0645 189.158 29.4546C189.158 31.8006 189.609 34.012 190.504 36.0996C191.4 38.193 192.612 40.0158 194.155 41.5762C195.691 43.1349 197.506 44.3673 199.596 45.2652C201.683 46.1532 203.92 46.6042 206.309 46.6042C208.701 46.6042 210.935 46.1532 213.026 45.2652C215.116 44.3673 216.944 43.1349 218.496 41.5762C220.066 40.0166 221.293 38.193 222.19 36.0996C223.083 34.012 223.53 31.8014 223.53 29.4546V0.000732422H221.672C219.846 0.000732422 218.365 1.48158 218.365 3.30764ZM218.365 29.4546C218.365 31.1102 218.055 32.6681 217.437 34.1383C216.811 35.606 215.964 36.8843 214.889 37.9642C213.807 39.0384 212.53 39.8895 211.061 40.5069C209.59 41.1236 208.01 41.4376 206.309 41.4376C204.657 41.4376 203.093 41.1236 201.627 40.5069C200.158 39.8895 198.881 39.0384 197.808 37.9642C196.726 36.8843 195.873 35.606 195.26 34.1383C194.636 32.6681 194.323 31.1102 194.323 29.4546C194.323 27.7581 194.636 26.1732 195.26 24.7046C195.873 23.2344 196.726 21.961 197.808 20.8778C198.882 19.8012 200.158 18.9476 201.627 18.3327C203.093 17.7087 204.657 17.4028 206.309 17.4028H218.365V29.4546Z" fill="white"/>
<path d="M88.4842 27.7657L79.9648 12.3708H73.9717L88.2989 38.2686L83.0118 47.8712C81.7425 50.1777 83.4103 53.0001 86.0424 53.0001L94.2928 38.2686V38.2661L108.816 12.3987H104.766C103.567 12.3987 102.461 13.049 101.877 14.0977L94.2674 27.7722C93.0055 30.0411 89.7412 30.037 88.4842 27.7657Z" fill="white"/>
<path d="M29.3793 17.2611C27.8361 15.7023 26.0256 14.4715 23.9372 13.5737C21.8479 12.6791 19.6086 12.2347 17.2168 12.2347H8.47105C6.64417 12.2347 5.16413 10.7538 5.16413 8.92776V3.30691C5.16413 1.48086 3.68328 0 1.8564 0H0V29.4539C0 31.7998 0.446882 34.0113 1.33982 36.0989C2.2385 38.1923 3.46763 40.015 5.02638 41.5754C6.58923 43.1342 8.41693 44.3674 10.5021 45.2645C12.5914 46.1525 14.8323 46.6035 17.2168 46.6035C19.6086 46.6035 21.8479 46.1525 23.9372 45.2645C26.0256 44.3674 27.8361 43.1342 29.3793 41.5754C30.9151 40.0159 32.1286 38.1923 33.0273 36.0989C33.9252 34.0113 34.3704 31.8007 34.3704 29.4539C34.3704 27.0629 33.9252 24.8269 33.0273 22.7376C32.1286 20.6483 30.9151 18.8255 29.3793 17.2611ZM28.2756 34.1384C27.6525 35.6061 26.803 36.8844 25.7264 37.9643C24.6448 39.0393 23.3722 39.8896 21.9029 40.5078C20.4343 41.1245 18.8739 41.4377 17.2168 41.4377C15.5178 41.4377 13.9377 41.1245 12.4667 40.5078C10.9974 39.8896 9.72149 39.0393 8.64078 37.9643C7.56663 36.8844 6.7155 35.6061 6.09643 34.1384C5.47572 32.6682 5.16413 31.1102 5.16413 29.4547V17.4029H17.2168C18.8739 17.4029 20.4343 17.7088 21.9029 18.3327C23.3722 18.9477 24.6448 19.8013 25.7264 20.8779C26.803 21.9611 27.6525 23.2345 28.2756 24.7047C28.8955 26.1732 29.2022 27.7582 29.2022 29.4547C29.2022 31.1102 28.8955 32.6682 28.2756 34.1384Z" fill="white"/>
<path d="M8.65625 30.6849L18.4975 20.8445H8.65625V30.6849Z" fill="#F0B441"/>
</svg>
